<svg width="1224" height="383" viewBox="0 0 1224 383" fill="none" xmlns="http://www.w3.org/2000/svg">
<path fill-rule="evenodd" clip-rule="evenodd" d="M0 18.3071L29.58 63.8937C58.14 109.48 116.28 200.654 174.42 223.447C233.58 246.24 291.72 200.654 349.86 170.262C408 139.871 466.14 124.676 524.28 132.274C582.42 139.871 641.58 170.262 699.72 155.067C757.86 139.871 816 79.0893 874.14 41.1004C932.28 3.11159 990.42 -12.0839 1049.58 10.7094C1107.72 33.5027 1165.86 94.2848 1194.42 124.676L1224 155.067V383H1194.42C1165.86 383 1107.72 383 1049.58 383C990.42 383 932.28 383 874.14 383C816 383 757.86 383 699.72 383C641.58 383 582.42 383 524.28 383C466.14 383 408 383 349.86 383C291.72 383 233.58 383 174.42 383C116.28 383 58.14 383 29.58 383H0V18.3071Z" fill="#0099FF" fill-opacity="0.2"/>
</svg>
